<svg xmlns="http://www.w3.org/2000/svg" width="140" height="40" viewBox="0 0 140 40"><g stroke="#fff" stroke-width="0.5"><rect width="140" height="40" rx="6" stroke="none"/><rect x="0.25" y="0.25" width="139.5" height="39.5" rx="5.75" fill="none"/></g><text transform="translate(44 27)" fill="#fff" font-size="18" font-family="PingFangSC-Semibold, PingFang SC" font-weight="600"><tspan x="0" y="0">Download</tspan></text><g transform="translate(11.304 -9.513)"><g transform="translate(0 18.27)"><path d="M23.949,311.043a1.355,1.355,0,0,0-1-.41H16.161l-1.991,1.991a2.827,2.827,0,0,1-3.982,0l-1.976-1.991H1.405a1.356,1.356,0,0,0-1,.41,1.355,1.355,0,0,0-.41,1v4.684a1.355,1.355,0,0,0,.41,1,1.355,1.355,0,0,0,1,.41H22.954a1.4,1.4,0,0,0,1.405-1.405v-4.684A1.355,1.355,0,0,0,23.949,311.043Zm-5.489,4.933a.919.919,0,1,1,.278-.659A.9.9,0,0,1,18.46,315.976Zm3.747,0a.919.919,0,1,1,.278-.659A.9.9,0,0,1,22.207,315.976Z" transform="translate(0 -295.642)" fill="#fff"/><path d="M97.918,33.919a.92.92,0,0,0,1.317,0l6.558-6.558a.845.845,0,0,0,.2-1.025.875.875,0,0,0-.864-.571h-3.748V19.207a.95.95,0,0,0-.937-.937H96.7a.95.95,0,0,0-.937.937v6.558H92.019a.875.875,0,0,0-.864.571.845.845,0,0,0,.205,1.025Z" transform="translate(-86.398 -18.27)" fill="#fff"/></g></g></svg>