<svg xmlns="http://www.w3.org/2000/svg" width="128" height="40" viewBox="0 0 128 40"><g stroke="#fff" stroke-width="0.5"><rect width="128" height="40" rx="6" stroke="none"/><rect x="0.25" y="0.25" width="127.5" height="39.5" rx="5.75" fill="none"/></g><g transform="translate(-43.57 -10.404)"><path d="M138.508,189.038a1.021,1.021,0,0,1-1.021,1.023H125.662a1.022,1.022,0,0,1-1.021-1.023V178.474c3.1-.011,10.33-.011,13.867,0Z" transform="translate(-64.979 -152.152)" fill="#fff"/><path d="M172.861,21.34a.236.236,0,0,1-.1.317h0a.236.236,0,0,1-.317-.1l-1.495-2.913a.236.236,0,0,1,.1-.317h0a.235.235,0,0,1,.317.1l1.494,2.913Z" transform="translate(-108.819 -0.434)" fill="#fff"/><path d="M302.992,21.029a.233.233,0,0,1-.322.085h0a.233.233,0,0,1-.085-.32l1.637-2.834a.234.234,0,0,1,.321-.086h0a.234.234,0,0,1,.087.32l-1.638,2.835Z" transform="translate(-233.507)" fill="#fff"/><path d="M402.452,180.874a1.488,1.488,0,0,1-1.489,1.489h0a1.489,1.489,0,0,1-1.49-1.489v-6.515a1.488,1.488,0,0,1,1.49-1.488h0a1.487,1.487,0,0,1,1.489,1.488Z" transform="translate(-325.314 -146.852)" fill="#fff"/><path d="M59.021,180.874a1.49,1.49,0,0,1-1.488,1.489h0a1.489,1.489,0,0,1-1.49-1.489v-6.515a1.487,1.487,0,0,1,1.49-1.488h0a1.488,1.488,0,0,1,1.488,1.488Z" transform="translate(0 -146.852)" fill="#fff"/><path d="M181.923,322.188a1.49,1.49,0,0,1-1.491,1.489h0a1.488,1.488,0,0,1-1.487-1.489v-6.515a1.489,1.489,0,0,1,1.487-1.49h0a1.491,1.491,0,0,1,1.491,1.49Z" transform="translate(-116.419 -280.71)" fill="#fff"/><path d="M279.808,322.188a1.49,1.49,0,0,1-1.49,1.489h0a1.489,1.489,0,0,1-1.489-1.489v-6.515a1.49,1.49,0,0,1,1.489-1.49h0a1.491,1.491,0,0,1,1.49,1.49Z" transform="translate(-209.139 -280.71)" fill="#fff"/><path d="M130.343,46.663a7.072,7.072,0,0,0-7,6.3h14a7.069,7.069,0,0,0-7-6.3Zm-3.159,3.818a.581.581,0,1,1,.581-.582A.582.582,0,0,1,127.184,50.481Zm6.331,0a.581.581,0,1,1,.582-.582A.582.582,0,0,1,133.515,50.481Z" transform="translate(-63.748 -27.301)" fill="#fff"/></g><text transform="translate(46 14)" fill="#fff" font-size="8" font-family="PingFangSC-Semibold, PingFang SC" font-weight="600"><tspan x="0" y="0">Download for</tspan></text><text transform="translate(42 30)" fill="#fff" font-size="20" font-family="PingFangSC-Semibold, PingFang SC" font-weight="600"><tspan x="0" y="0">Android</tspan></text></svg>